<svg width="1440" height="4990" viewBox="0 0 1440 4990" fill="none" xmlns="http://www.w3.org/2000/svg">
<g filter="url(#filter0_f_156_42)">
<path fill-rule="evenodd" clip-rule="evenodd" d="M1233.28 1449.29C1293.55 1424.45 1331.65 1326 1394.24 1344.24C1448.92 1360.18 1425.29 1451.15 1433.11 1507.52C1438.48 1546.25 1422.54 1585.09 1432.86 1622.8C1448.55 1680.16 1523.08 1723.75 1508 1781.28C1494.36 1833.26 1424.31 1858.41 1370.56 1860.38C1318.48 1862.29 1285.39 1791.35 1233.28 1791.35C1181.17 1791.35 1144.61 1879.14 1096 1860.37C1051.14 1843.04 1079.37 1766.94 1058.26 1723.76C1039.22 1684.82 985.708 1665.74 979.849 1622.8C973.991 1579.87 999.347 1536.79 1028.35 1504.58C1055.23 1474.73 1095.43 1461.84 1134.22 1451.37C1166.66 1442.62 1202.22 1462.08 1233.28 1449.29Z" fill="#18166F"/>
</g>
<g filter="url(#filter1_f_156_42)">
<circle cx="629" cy="4263" r="166" fill="#18166F"/>
</g>
<g filter="url(#filter2_f_156_42)">
<circle cx="1113.5" cy="2821.5" r="177.5" fill="#18166F"/>
</g>
<g filter="url(#filter3_f_156_42)">
<path fill-rule="evenodd" clip-rule="evenodd" d="M1310.12 67.8563C1399.46 102.438 1511.34 83.6685 1577.36 150.871C1646.28 221.013 1678.5 329.236 1648.94 412.7C1620.25 493.69 1512.36 514.301 1433.61 556.701C1377.9 586.698 1323.91 617.568 1257.72 623.343C1194.34 628.874 1133.1 606.407 1070.06 588.422C991.405 565.981 896.602 566.698 844.865 505.555C792.209 443.326 794.171 356.102 812.776 284.361C829.803 218.709 897.959 184.477 941.676 132.259C990.747 73.6473 1003.38 -25.8395 1084.32 -39.9875C1164.99 -54.0878 1230.43 37.0059 1310.12 67.8563Z" fill="#18166F"/>
</g>
<g filter="url(#filter4_f_156_42)">
<path fill-rule="evenodd" clip-rule="evenodd" d="M237.308 402.955C296.656 411.202 365.944 359.328 413.834 395.389C463.326 432.658 450.228 510.933 461.645 571.884C469.765 615.235 458.796 659.275 471.191 701.6C490.267 766.74 583.023 823.285 553.107 884.2C524.226 943.009 428.796 915.004 363.602 920.676C320.827 924.397 278.46 899.409 237.308 911.675C170.787 931.503 126.588 1025.58 58.604 1011.59C-0.756592 999.374 1.82942 907.775 -30.6558 856.541C-64.8801 802.563 -140.339 765.495 -137.944 701.6C-135.53 637.183 -46.5682 611.617 -19.2897 553.231C11.8324 486.617 -33.3553 379.182 30.0363 342.056C93.2687 305.024 164.753 392.872 237.308 402.955Z" fill="#18166F"/>
</g>
<g filter="url(#filter5_f_156_42)">
<path fill-rule="evenodd" clip-rule="evenodd" d="M151.754 4099.13C222.895 4117.33 200.091 4248.59 264.381 4284.08C330.854 4320.77 447.076 4221.09 488.275 4284.86C528.306 4346.83 400.209 4406.03 390.4 4479.15C382.575 4537.49 456.04 4588.91 439.896 4645.51C424.15 4700.72 358.365 4722.69 311.487 4755.82C260.253 4792.03 213.84 4858.18 151.754 4849.16C87.4037 4839.81 65.6771 4755.82 16.7456 4712.99C-20.985 4679.97 -64.3545 4658.2 -102.974 4626.22C-160.253 4578.79 -286.742 4550.47 -265.654 4479.15C-240.762 4394.97 -91.111 4436.69 -28.6822 4374.98C10.1714 4336.57 -29.8163 4262.18 0.0896301 4216.46C35.685 4162.04 88.7568 4083.01 151.754 4099.13Z" fill="#18166F"/>
</g>
<g filter="url(#filter6_f_156_42)">
<path fill-rule="evenodd" clip-rule="evenodd" d="M1226.01 3001.11C1296.68 3019.19 1274.03 3149.59 1337.9 3184.83C1403.93 3221.28 1519.4 3122.26 1560.33 3185.61C1600.09 3247.17 1472.84 3305.98 1463.09 3378.61C1455.32 3436.56 1528.3 3487.64 1512.26 3543.87C1496.62 3598.71 1431.27 3620.53 1384.69 3653.44C1333.8 3689.41 1287.69 3755.13 1226.01 3746.17C1162.08 3736.88 1140.49 3653.45 1091.88 3610.9C1054.4 3578.1 1011.31 3556.47 972.946 3524.71C916.041 3477.59 790.381 3449.46 811.331 3378.61C836.059 3295 984.731 3336.43 1046.75 3275.13C1085.35 3236.98 1045.62 3163.09 1075.34 3117.67C1110.7 3063.61 1163.42 2985.1 1226.01 3001.11Z" fill="#18166F"/>
</g>
<g filter="url(#filter7_f_156_42)">
<path fill-rule="evenodd" clip-rule="evenodd" d="M154.869 2198.13C197.431 2197.32 255.507 2172.83 280.043 2207.6C309.71 2249.64 249.636 2310.91 268.287 2358.87C282.57 2395.6 349.895 2387.66 364.332 2424.33C377.751 2458.41 351.234 2495.45 334.987 2528.28C317.92 2562.77 298.361 2596.41 267.675 2619.64C234.842 2644.49 195.89 2668.3 154.869 2664.62C114.241 2660.98 73.9548 2635.49 53.1708 2600.41C33.3032 2566.87 70.2996 2518.06 48.7895 2485.55C24.8903 2449.43 -42.2036 2462.14 -63.3295 2424.33C-83.1833 2388.79 -68.9385 2341.92 -52.1889 2304.83C-34.6949 2266.08 -5.39028 2231.77 32.4073 2212.3C69.5659 2193.15 113.071 2198.92 154.869 2198.13Z" fill="#18166F"/>
</g>
<g filter="url(#filter8_f_156_42)">
<path fill-rule="evenodd" clip-rule="evenodd" d="M145.869 1896.13C188.431 1895.32 246.507 1870.83 271.043 1905.6C300.71 1947.64 240.636 2008.91 259.287 2056.87C273.57 2093.6 340.895 2085.66 355.332 2122.33C368.751 2156.41 342.234 2193.45 325.987 2226.28C308.92 2260.77 289.361 2294.41 258.675 2317.64C225.842 2342.49 186.89 2366.3 145.869 2362.62C105.241 2358.98 64.9548 2333.49 44.1708 2298.41C24.3032 2264.87 61.2996 2216.06 39.7895 2183.55C15.8903 2147.43 -51.2036 2160.14 -72.3295 2122.33C-92.1833 2086.79 -77.9385 2039.92 -61.1889 2002.83C-43.6949 1964.08 -14.3903 1929.77 23.4073 1910.3C60.5659 1891.15 104.071 1896.92 145.869 1896.13Z" fill="#18166F"/>
</g>
<defs>
<filter id="filter0_f_156_42" x="279" y="642" width="1931" height="1921" filterUnits="userSpaceOnUse" color-interpolation-filters="sRGB">
<feFlood flood-opacity="0" result="BackgroundImageFix"/>
<feBlend mode="normal" in="SourceGraphic" in2="BackgroundImageFix" result="shape"/>
<feGaussianBlur stdDeviation="350" result="effect1_foregroundBlur_156_42"/>
</filter>
<filter id="filter1_f_156_42" x="-87" y="3547" width="1432" height="1432" filterUnits="userSpaceOnUse" color-interpolation-filters="sRGB">
<feFlood flood-opacity="0" result="BackgroundImageFix"/>
<feBlend mode="normal" in="SourceGraphic" in2="BackgroundImageFix" result="shape"/>
<feGaussianBlur stdDeviation="275" result="effect1_foregroundBlur_156_42"/>
</filter>
<filter id="filter2_f_156_42" x="336" y="2044" width="1555" height="1555" filterUnits="userSpaceOnUse" color-interpolation-filters="sRGB">
<feFlood flood-opacity="0" result="BackgroundImageFix"/>
<feBlend mode="normal" in="SourceGraphic" in2="BackgroundImageFix" result="shape"/>
<feGaussianBlur stdDeviation="300" result="effect1_foregroundBlur_156_42"/>
</filter>
<filter id="filter3_f_156_42" x="250.854" y="-591.459" width="1959.07" height="1765.66" filterUnits="userSpaceOnUse" color-interpolation-filters="sRGB">
<feFlood flood-opacity="0" result="BackgroundImageFix"/>
<feBlend mode="normal" in="SourceGraphic" in2="BackgroundImageFix" result="shape"/>
<feGaussianBlur stdDeviation="275" result="effect1_foregroundBlur_156_42"/>
</filter>
<filter id="filter4_f_156_42" x="-788" y="-317" width="1997" height="1980" filterUnits="userSpaceOnUse" color-interpolation-filters="sRGB">
<feFlood flood-opacity="0" result="BackgroundImageFix"/>
<feBlend mode="normal" in="SourceGraphic" in2="BackgroundImageFix" result="shape"/>
<feGaussianBlur stdDeviation="325" result="effect1_foregroundBlur_156_42"/>
</filter>
<filter id="filter5_f_156_42" x="-1168" y="3197" width="2564" height="2553" filterUnits="userSpaceOnUse" color-interpolation-filters="sRGB">
<feFlood flood-opacity="0" result="BackgroundImageFix"/>
<feBlend mode="normal" in="SourceGraphic" in2="BackgroundImageFix" result="shape"/>
<feGaussianBlur stdDeviation="450" result="effect1_foregroundBlur_156_42"/>
</filter>
<filter id="filter6_f_156_42" x="9" y="2199" width="2359" height="2348" filterUnits="userSpaceOnUse" color-interpolation-filters="sRGB">
<feFlood flood-opacity="0" result="BackgroundImageFix"/>
<feBlend mode="normal" in="SourceGraphic" in2="BackgroundImageFix" result="shape"/>
<feGaussianBlur stdDeviation="400" result="effect1_foregroundBlur_156_42"/>
</filter>
<filter id="filter7_f_156_42" x="-873" y="1389" width="2041" height="2076" filterUnits="userSpaceOnUse" color-interpolation-filters="sRGB">
<feFlood flood-opacity="0" result="BackgroundImageFix"/>
<feBlend mode="normal" in="SourceGraphic" in2="BackgroundImageFix" result="shape"/>
<feGaussianBlur stdDeviation="400" result="effect1_foregroundBlur_156_42"/>
</filter>
<filter id="filter8_f_156_42" x="-882" y="1087" width="2041" height="2076" filterUnits="userSpaceOnUse" color-interpolation-filters="sRGB">
<feFlood flood-opacity="0" result="BackgroundImageFix"/>
<feBlend mode="normal" in="SourceGraphic" in2="BackgroundImageFix" result="shape"/>
<feGaussianBlur stdDeviation="400" result="effect1_foregroundBlur_156_42"/>
</filter>
</defs>
</svg>
