<svg width="48" height="64" viewBox="0 0 48 64" fill="none" xmlns="http://www.w3.org/2000/svg">
<path fill-rule="evenodd" clip-rule="evenodd" d="M0.633192 34.6285C0.72462 36.5165 2.61034 35.6434 3.4652 35.0537C4.27663 34.4936 4.51434 34.9599 4.5852 33.8536C4.65874 33.1285 4.68851 32.3995 4.67434 31.6708C3.41506 31.5445 2.15175 31.8684 1.10862 32.5851C0.589764 32.9622 -0.379381 34.1622 0.633192 34.6422" fill="#F6D2A2"/>
<path d="M1.61372 35.9593C1.42731 35.9627 1.24265 35.9228 1.07429 35.8427C0.881918 35.7314 0.723082 35.5704 0.614481 35.3766C0.50588 35.1827 0.451528 34.9631 0.457143 34.741C0.332417 34.6807 0.225045 34.5897 0.145088 34.4765C0.0651319 34.3634 0.0152096 34.2318 0 34.0941C0.034112 33.7621 0.140108 33.4414 0.310626 33.1545C0.481144 32.8675 0.712094 32.6211 0.987431 32.4324C2.06436 31.6879 3.37207 31.353 4.67429 31.4884L4.82972 31.5021V31.6575C4.84979 32.2272 4.83223 32.7976 4.77715 33.365C4.76344 33.5318 4.75201 33.6964 4.74058 33.8633C4.69029 34.6473 4.54401 34.7661 4.13944 34.9055C3.92694 34.9734 3.72584 35.0728 3.54286 35.2004C2.97572 35.615 2.3113 35.8763 1.61372 35.9593ZM4.15086 31.8267C3.10106 31.8127 2.0732 32.1276 1.21143 32.7273C0.841144 32.997 0.326858 33.6278 0.370287 34.0621C0.383247 34.1541 0.421537 34.2406 0.480876 34.3121C0.540215 34.3835 0.618262 34.4371 0.706287 34.4667L0.804572 34.5124V34.6198C0.827429 35.0907 0.969145 35.3924 1.22743 35.5204C1.72572 35.7673 2.65372 35.3878 3.35543 34.9055C3.5659 34.7593 3.79702 34.6453 4.04115 34.5673C4.30629 34.4758 4.36115 34.4553 4.40001 33.8404C4.40001 33.6735 4.42286 33.5067 4.43658 33.3375C4.48324 32.8376 4.50308 32.3356 4.49601 31.8335C4.37867 31.829 4.2621 31.8267 4.15086 31.8267Z" fill="black"/>
<path fill-rule="evenodd" clip-rule="evenodd" d="M0.633118 34.6279C0.920092 34.5645 1.1818 34.4173 1.38512 34.2051Z" fill="#C6B198"/>
<path d="M0.633121 34.8104C0.591938 34.8088 0.552539 34.7932 0.521469 34.7661C0.490398 34.739 0.469525 34.7021 0.462317 34.6616C0.455109 34.621 0.462 34.5792 0.481844 34.543C0.501688 34.5069 0.533292 34.4787 0.571407 34.463L0.69255 34.4196C0.903867 34.3713 1.09579 34.2606 1.24341 34.1018C1.25639 34.0802 1.27377 34.0615 1.29442 34.047C1.31508 34.0325 1.33854 34.0225 1.36331 34.0176C1.38808 34.0127 1.41359 34.013 1.43821 34.0186C1.46283 34.0242 1.486 34.0349 1.50623 34.05C1.52646 34.0651 1.54331 34.0843 1.55567 34.1063C1.56804 34.1283 1.57566 34.1526 1.57803 34.1778C1.5804 34.2029 1.57748 34.2282 1.56945 34.2522C1.56142 34.2761 1.54846 34.2981 1.53141 34.3167C1.3429 34.5337 1.0924 34.6876 0.813693 34.7578L0.697121 34.799C0.676668 34.8067 0.654974 34.8106 0.633121 34.8104Z" fill="black"/>
<path fill-rule="evenodd" clip-rule="evenodd" d="M4.99201 12.1339C-2.23772 10.1019 3.13829 0.913356 8.94173 4.68936L4.99201 12.1339Z" fill="#6AD7E5"/>
<path d="M5.08342 12.3424L4.94399 12.3036C4.07387 12.1556 3.26827 11.7496 2.63166 11.1383C1.99504 10.5269 1.55678 9.73842 1.3737 8.875C1.28785 7.98787 1.45141 7.09439 1.84596 6.2952C2.2405 5.496 2.85037 4.82285 3.60685 4.35157C4.42697 3.83391 5.38378 3.57477 6.35305 3.60778C7.32232 3.6408 8.25928 3.96445 9.04228 4.53671L9.17943 4.62585L5.08342 12.3424ZM6.10971 3.96299C5.29002 3.96323 4.48804 4.20145 3.80113 4.64871C3.10208 5.08157 2.53769 5.70091 2.17143 6.43704C1.80518 7.17318 1.65161 7.99691 1.72798 8.81557C1.89224 9.58817 2.28093 10.2951 2.84531 10.8477C3.4097 11.4003 4.12467 11.774 4.90056 11.9219L8.70628 4.75157C7.93041 4.25406 7.03126 3.98257 6.10971 3.96757V3.96299Z" fill="black"/>
<path fill-rule="evenodd" clip-rule="evenodd" d="M37.1063 3.99986C42.8206 -0.0184278 47.9978 9.04902 41.3486 11.3302L37.1063 3.99986Z" fill="#6AD7E5"/>
<path d="M41.2687 11.548L36.8687 3.94802L37.0035 3.8543C37.7353 3.26838 38.625 2.91353 39.5592 2.83497C40.4934 2.75641 41.4298 2.95769 42.2492 3.41316C43.0238 3.86753 43.657 4.52801 44.0783 5.32102C44.4996 6.11402 44.6925 7.00843 44.6355 7.9046C44.5195 8.75856 44.1496 9.55796 43.5737 10.1991C42.9978 10.8402 42.2425 11.2935 41.4058 11.5L41.2687 11.548ZM37.3464 4.05316L41.4309 11.1092C42.1711 10.9076 42.8357 10.4928 43.342 9.91658C43.8484 9.34033 44.1742 8.62795 44.279 7.86803C44.3303 7.04006 44.1509 6.21409 43.7606 5.48205C43.3704 4.75001 42.7847 4.14063 42.0687 3.72173C41.3376 3.30173 40.4981 3.10896 39.657 3.16798C38.816 3.22701 38.0116 3.53517 37.3464 4.05316Z" fill="black"/>
<path fill-rule="evenodd" clip-rule="evenodd" d="M38.3383 57.8672C39.7921 58.7655 42.4526 61.4855 40.2675 62.8043C38.1738 64.7221 37.0012 60.6992 35.1612 60.1415C35.5147 59.5717 35.9774 59.0774 36.5226 58.687C37.0679 58.2967 37.685 58.0181 38.3383 57.8672Z" fill="#F6D2A2"/>
<path d="M39.1635 63.5001H39.0766C38.2515 63.4498 37.5658 62.6452 36.9029 61.8658C36.4479 61.2041 35.8299 60.6711 35.1086 60.3183L34.8663 60.2452L35.0172 60.0395C35.7628 58.854 36.9467 58.0111 38.3109 57.6943H38.3772L38.4343 57.7286C39.3646 58.3046 41.2846 59.9869 41.2755 61.5092C41.2707 61.81 41.1847 62.1039 41.0266 62.3598C40.8684 62.6157 40.6441 62.8241 40.3772 62.9629C40.0554 63.2894 39.6215 63.4814 39.1635 63.5001ZM35.4492 60.0715C36.1269 60.4707 36.7152 61.0052 37.1772 61.6418C37.8195 62.3961 38.4275 63.1092 39.0995 63.1503C39.2956 63.1498 39.4896 63.109 39.6693 63.0303C39.849 62.9517 40.0106 62.8369 40.1441 62.6932L40.1715 62.6726C40.3891 62.5663 40.5733 62.4021 40.7039 62.1981C40.8345 61.9942 40.9065 61.7582 40.9121 61.5161C40.9121 60.3001 39.3761 58.7732 38.2972 58.0875C37.1312 58.3581 36.1125 59.0637 35.4492 60.0601V60.0715Z" fill="black"/>
<path d="M40.2675 62.9844C40.2344 62.9842 40.2019 62.975 40.1737 62.9577C40.1455 62.9403 40.1226 62.9156 40.1075 62.8861C40.0012 62.6629 39.9073 62.434 39.8264 62.2004C39.7017 61.761 39.4781 61.356 39.1726 61.0164C39.1444 60.9822 39.1297 60.9387 39.1314 60.8944C39.1331 60.85 39.151 60.8079 39.1818 60.7759C39.2126 60.744 39.2541 60.7245 39.2984 60.7212C39.3427 60.7179 39.3866 60.731 39.4218 60.7581C39.768 61.1344 40.0223 61.5858 40.1646 62.0769C40.2414 62.2949 40.3299 62.5085 40.4298 62.7169C40.4513 62.7597 40.4549 62.8092 40.4399 62.8546C40.4249 62.9001 40.3925 62.9377 40.3498 62.9592C40.3248 62.9742 40.2966 62.9828 40.2675 62.9844Z" fill="black"/>
<path fill-rule="evenodd" clip-rule="evenodd" d="M12.3749 60.9415C10.6698 61.2043 9.70979 62.7449 8.28807 63.5266C6.94864 64.3266 6.43435 63.2706 6.31549 63.0558C6.10521 62.9598 6.12349 63.1449 5.79892 62.8272C4.54863 60.8569 7.09035 59.4283 8.4115 58.45C10.2515 58.0775 11.4058 59.6729 12.3749 60.9415Z" fill="#F6D2A2"/>
<path d="M7.38061 64.0004C7.27183 64.001 7.16345 63.9872 7.05833 63.9592C6.8705 63.8979 6.69687 63.7995 6.54769 63.67C6.39851 63.5404 6.2768 63.3823 6.18975 63.2049H6.14861C5.99775 63.2049 5.88575 63.1729 5.66175 62.9466L5.63661 62.9169C4.44118 61.0289 6.47547 59.5958 7.82404 58.6472C7.99318 58.5284 8.15318 58.4186 8.29718 58.3089L8.32918 58.2861H8.36804C10.2629 57.9021 11.4606 59.4701 12.4206 60.7295L12.6926 61.0838L12.3932 61.1295C11.4299 61.3607 10.5532 61.8637 9.86747 62.5786C9.40612 63.0005 8.90294 63.3743 8.36576 63.6941C8.07055 63.8822 7.73042 63.9879 7.38061 64.0004ZM6.17604 62.8438C6.24884 62.8439 6.3207 62.8603 6.38632 62.8918L6.4389 62.9169L6.48461 62.9969C6.54899 63.1389 6.64125 63.2665 6.7559 63.3721C6.87056 63.4777 7.00527 63.5592 7.15204 63.6118C7.33223 63.6453 7.5173 63.6423 7.69632 63.603C7.87535 63.5638 8.04468 63.489 8.19433 63.3832C8.71169 63.0741 9.19644 62.7134 9.64119 62.3066C10.3172 61.631 11.1447 61.1264 12.0549 60.8346C11.1406 59.6324 10.0846 58.3341 8.48461 58.6335C8.34518 58.7341 8.19433 58.8415 8.02747 58.9512C6.65604 59.9204 4.93718 61.1272 5.9269 62.7181C6.06861 62.8598 6.10289 62.8575 6.13261 62.8575L6.17604 62.8438Z" fill="black"/>
<path d="M6.31317 63.2348H6.29717C6.24963 63.2308 6.20564 63.208 6.17481 63.1716C6.14397 63.1352 6.12879 63.0881 6.13259 63.0406C6.20639 62.5613 6.40594 62.1102 6.71088 61.7331C6.85465 61.5342 6.98084 61.3231 7.08802 61.1023C7.10953 61.062 7.14547 61.0314 7.18862 61.0166C7.23176 61.0018 7.27891 61.0039 7.3206 61.0224C7.36229 61.0409 7.39541 61.0745 7.41333 61.1165C7.43124 61.1585 7.43261 61.2056 7.41717 61.2486C7.30186 61.4886 7.16572 61.718 7.01031 61.9343C6.74125 62.2636 6.56315 62.6576 6.49374 63.0771C6.48814 63.121 6.46668 63.1612 6.4334 63.1903C6.40013 63.2193 6.35735 63.2352 6.31317 63.2348Z" fill="black"/>
<path fill-rule="evenodd" clip-rule="evenodd" d="M5.29376 9.59941C4.34061 9.09427 3.64118 8.41084 4.22404 7.31369C4.76347 6.29198 5.7669 6.39941 6.72005 6.90684L5.29376 9.59941Z" fill="black"/>
<path fill-rule="evenodd" clip-rule="evenodd" d="M39.8424 8.63506C40.7956 8.12991 41.495 7.44648 40.9121 6.34934C40.3727 5.32762 39.3693 5.43505 38.4161 5.94248L39.8424 8.63506Z" fill="black"/>
<path fill-rule="evenodd" clip-rule="evenodd" d="M46.4069 34.3907C46.3155 36.2787 44.4298 35.4056 43.5749 34.8159C42.7635 34.2559 42.5258 34.7221 42.4549 33.6159C42.3814 32.8907 42.3516 32.1617 42.3658 31.433C43.6251 31.3067 44.8884 31.6306 45.9315 32.3473C46.4504 32.7244 47.4195 33.9244 46.4069 34.4044" fill="#F6D2A2"/>
<path d="M45.4264 35.7192C44.721 35.6408 44.0483 35.38 43.4744 34.9626C43.2914 34.835 43.0903 34.7356 42.8778 34.6678C42.4732 34.526 42.3269 34.4072 42.2766 33.6255C42.2766 33.4586 42.2538 33.294 42.2401 33.1272C42.1851 32.5598 42.1675 31.9894 42.1875 31.4198V31.2643L42.3429 31.2506C43.6452 31.1152 44.9529 31.4501 46.0298 32.1946C46.3051 32.3833 46.5361 32.6297 46.7066 32.9167C46.8771 33.2036 46.9831 33.5243 47.0172 33.8563C47.002 33.994 46.9521 34.1256 46.8721 34.2388C46.7922 34.3519 46.6848 34.4429 46.5601 34.5032C46.5657 34.7253 46.5113 34.9449 46.4027 35.1388C46.2941 35.3326 46.1353 35.4937 45.9429 35.6049C45.7813 35.6808 45.6049 35.7198 45.4264 35.7192ZM42.5395 31.6049C42.5324 32.1069 42.5523 32.609 42.5989 33.1089C42.6126 33.2758 42.6241 33.4426 42.6355 33.6118C42.6744 34.2266 42.7292 34.2449 42.9944 34.3386C43.2385 34.4166 43.4696 34.5307 43.6801 34.6769C44.3795 35.1615 45.3098 35.5386 45.8081 35.2918C46.0664 35.1638 46.2081 34.862 46.2309 34.3912V34.2838L46.3292 34.238C46.4172 34.2084 46.4953 34.1549 46.5546 34.0834C46.614 34.012 46.6523 33.9254 46.6652 33.8335C46.7064 33.3992 46.1944 32.7683 45.8241 32.4986C44.8647 31.831 43.7052 31.5131 42.5395 31.598V31.6049Z" fill="black"/>
<path fill-rule="evenodd" clip-rule="evenodd" d="M46.407 34.3906C46.12 34.3272 45.8583 34.18 45.655 33.9678Z" fill="#C6B198"/>
<path d="M46.4069 34.5695C46.3865 34.5731 46.3656 34.5731 46.3452 34.5695L46.2286 34.5284C45.9499 34.4583 45.6993 34.3043 45.5109 34.0872C45.4939 34.0686 45.4809 34.0466 45.4729 34.0227C45.4649 33.9988 45.4619 33.9734 45.4643 33.9483C45.4667 33.9231 45.4743 33.8988 45.4867 33.8768C45.499 33.8548 45.5159 33.8356 45.5361 33.8205C45.5563 33.8054 45.5795 33.7947 45.6041 33.7891C45.6287 33.7836 45.6543 33.7832 45.679 33.7881C45.7038 33.793 45.7273 33.803 45.7479 33.8175C45.7686 33.832 45.7859 33.8507 45.7989 33.8724C45.9465 34.0311 46.1385 34.1418 46.3498 34.1901L46.4709 34.2335C46.509 34.2492 46.5406 34.2774 46.5605 34.3135C46.5803 34.3497 46.5872 34.3915 46.58 34.4321C46.5728 34.4726 46.5519 34.5095 46.5209 34.5366C46.4898 34.5637 46.4504 34.5793 46.4092 34.5809L46.4069 34.5695Z" fill="black"/>
<path fill-rule="evenodd" clip-rule="evenodd" d="M22.7954 0.180664C30.032 0.180664 36.816 1.21609 40.3521 8.16925C43.5269 15.9613 42.3978 24.3659 42.8823 32.6013C43.2983 39.6733 44.2195 47.8425 40.9395 54.3979C37.488 61.2916 28.864 63.0265 21.7577 62.7728C16.176 62.5739 9.43543 60.7522 6.28571 55.6528C2.5897 49.671 4.34056 40.775 4.60799 34.119C4.92571 26.2356 2.47313 18.3247 5.06514 10.6104C7.75314 2.61038 14.9989 0.797808 22.7977 0.180664" fill="#6AD7E5"/>
<path d="M22.9943 62.9715C22.5372 62.9715 22.1258 62.9715 21.7532 62.9487C18.3246 62.8253 9.9223 61.8767 6.13487 55.7441C3.14743 50.9075 3.68001 44.2218 4.14858 38.3224C4.26744 36.8389 4.37715 35.4355 4.43201 34.1098C4.48537 31.3119 4.36552 28.5134 4.07315 25.7303C3.29574 20.668 3.57592 15.4995 4.89601 10.5509C5.44289 8.78734 6.35139 7.15717 7.56354 5.76438C8.77568 4.3716 10.2648 3.24678 11.936 2.46172C15.3632 0.963134 19.0434 0.127815 22.7818 0H22.7955C29.8606 0 36.8983 0.980574 40.5121 8.08687V8.10059C42.4393 13.8064 43.2495 19.8301 42.8984 25.8423C42.9098 28.0572 42.9235 30.3498 43.0538 32.5898C43.0926 33.2755 43.1384 33.9612 43.1841 34.6469C43.6046 41.1406 44.0801 48.5029 41.0926 54.471C37.3692 61.9247 27.9703 62.9715 22.9943 62.9715ZM22.8023 0.358858C15.2732 0.95543 7.94516 2.61715 5.23201 10.6652C3.92966 15.5678 3.65495 20.6868 4.42515 25.7006C4.71645 28.499 4.83401 31.3128 4.77715 34.1258C4.72229 35.4606 4.61258 36.8686 4.49372 38.3544C4.03658 44.1989 3.50172 50.8229 6.42744 55.559C10.1257 61.5453 18.3772 62.4733 21.7532 62.5921C26.1463 62.7498 36.7909 62.2561 40.7658 54.3155C43.7098 48.4344 43.2366 41.1246 42.8229 34.6766C42.7772 33.9909 42.7338 33.2915 42.6926 32.6195C42.5601 30.3703 42.5486 28.0732 42.5372 25.8538C42.8859 19.8903 42.0859 13.9154 40.1806 8.25373C36.6629 1.31657 29.7486 0.361144 22.8023 0.358858Z" fill="black"/>
<path fill-rule="evenodd" clip-rule="evenodd" d="M24.0731 9.89497C25.3714 17.4378 37.7189 15.4515 35.9452 7.83782C34.3452 1.00809 23.6411 2.89838 24.0731 9.89497Z" fill="white"/>
<path d="M29.9383 14.8232C29.1702 14.8261 28.407 14.701 27.68 14.4529C26.6903 14.1256 25.8119 13.5278 25.1441 12.7272C24.4764 11.9266 24.0461 10.9551 23.9017 9.92265V9.90437C23.8107 8.32597 24.3353 6.77376 25.3652 5.5742C26.3951 4.37464 27.85 3.62121 29.424 3.47235C30.8834 3.16953 32.4033 3.45318 33.6553 4.26199C34.9072 5.07079 35.7905 6.33979 36.1143 7.79465C36.3822 8.742 36.3802 9.74534 36.1084 10.6916C35.8366 11.6378 35.3059 12.4893 34.576 13.1501C33.2832 14.25 31.6357 14.8444 29.9383 14.8232ZM24.2469 9.87465C24.3841 10.8432 24.7888 11.7542 25.4155 12.5052C26.0422 13.2563 26.866 13.8176 27.7943 14.1261C28.9004 14.497 30.083 14.5782 31.2294 14.3622C32.3758 14.1461 33.4477 13.6399 34.3429 12.8918C35.0275 12.271 35.5246 11.471 35.7779 10.5823C36.0312 9.69352 36.0305 8.75161 35.776 7.86322C35.467 6.49429 34.6312 5.30217 33.4496 4.54496C32.268 3.78776 30.8358 3.52641 29.4629 3.8175C27.9795 3.95815 26.6081 4.66726 25.6359 5.79633C24.6636 6.9254 24.1659 8.38685 24.2469 9.87465Z" fill="black"/>
<path fill-rule="evenodd" clip-rule="evenodd" d="M9.32112 11.1155C11.0034 17.6916 21.5314 16.0001 21.1337 9.41268C20.6583 1.51324 7.70969 3.03781 9.31884 11.1155" fill="white"/>
<path d="M14.9371 15.4529C13.8665 15.4632 12.81 15.2071 11.8628 14.7078C11.1867 14.3407 10.596 13.8346 10.1296 13.2227C9.66311 12.6109 9.3315 11.9072 9.15655 11.1581C8.89672 10.1343 8.93653 9.05753 9.27125 8.0558C9.60597 7.05407 10.2215 6.16963 11.0446 5.50776C12.0376 4.75048 13.2129 4.26848 14.4517 4.11037C15.6905 3.95226 16.9491 4.12362 18.1006 4.60718C19.0378 5.01657 19.8377 5.68662 20.405 6.53758C20.9723 7.38855 21.2832 8.3846 21.3006 9.40719C21.3538 10.8814 20.8413 12.3202 19.8682 13.4288C18.8951 14.5375 17.5349 15.2322 16.0663 15.3706C15.6926 15.4272 15.3151 15.4547 14.9371 15.4529ZM9.4857 11.0781C9.848 12.4562 10.7324 13.6394 11.9517 14.377C13.1709 15.1146 14.6294 15.3488 16.0183 15.0301C17.4029 14.9026 18.6865 14.2508 19.6064 13.2081C20.5263 12.1654 21.0129 10.8106 20.9669 9.42091C20.9523 8.45927 20.6614 7.52213 20.1288 6.72128C19.5963 5.92044 18.8446 5.2897 17.9634 4.90433C16.8688 4.44415 15.6722 4.28087 14.4943 4.43096C13.3165 4.58105 12.1991 5.03921 11.2548 5.75919C10.4814 6.38309 9.90344 7.21608 9.5898 8.15902C9.27616 9.10196 9.24003 10.1152 9.4857 11.0781Z" fill="black"/>
<path fill-rule="evenodd" clip-rule="evenodd" d="M25.5635 18.9581C25.6717 19.9978 25.6839 21.0453 25.6 22.0873C25.3486 22.5604 24.8572 22.6107 24.4343 22.8027C24.1461 22.7574 23.8741 22.6394 23.6442 22.4599C23.4142 22.2803 23.2338 22.0451 23.12 21.7764C23.057 20.5956 23.0883 19.4117 23.2137 18.2358L25.5635 18.9581Z" fill="white"/>
<path d="M24.4595 22.9876H24.4069C24.0875 22.937 23.7864 22.8054 23.5323 22.6053C23.2782 22.4052 23.0796 22.1434 22.9555 21.8448V21.8219V21.7968C22.8793 20.9883 22.8862 20.1741 22.976 19.367C23.0058 18.9945 23.0355 18.6105 23.0469 18.2242V17.9956L25.7463 18.823V18.9556C25.7463 19.2802 25.7738 19.6162 25.8012 19.9705C25.8851 20.6838 25.879 21.4049 25.7829 22.1168V22.1442L25.7692 22.1693C25.6652 22.341 25.5279 22.4901 25.3654 22.6079C25.2028 22.7256 25.0184 22.8097 24.8229 22.855C24.7155 22.8939 24.6149 22.9282 24.5166 22.9739L24.4595 22.9876ZM23.296 21.7282C23.3963 21.9552 23.5502 22.1546 23.7445 22.309C23.9388 22.4635 24.1677 22.5685 24.4115 22.615C24.5052 22.5762 24.6012 22.5419 24.6926 22.5076C24.9902 22.4458 25.2532 22.2735 25.4286 22.0253C25.5103 21.352 25.5103 20.6712 25.4286 19.9979C25.4058 19.6848 25.3829 19.3853 25.376 19.0836L23.376 18.471C23.36 18.7819 23.3372 19.0905 23.3143 19.3853C23.2273 20.1635 23.2196 20.9485 23.2915 21.7282H23.296Z" fill="black"/>
<path d="M12.224 11.9673C13.2062 11.9673 14.0023 11.1057 14.0023 10.0427C14.0023 8.97983 13.2062 8.11816 12.224 8.11816C11.2419 8.11816 10.4457 8.97983 10.4457 10.0427C10.4457 11.1057 11.2419 11.9673 12.224 11.9673Z" fill="black"/>
<path d="M13.0332 10.9671C13.2642 10.9671 13.4514 10.7481 13.4514 10.4779C13.4514 10.2078 13.2642 9.98877 13.0332 9.98877C12.8021 9.98877 12.6149 10.2078 12.6149 10.4779C12.6149 10.7481 12.8021 10.9671 13.0332 10.9671Z" fill="white"/>
<path d="M27.1178 11.4878C28.0835 11.4878 28.8664 10.6262 28.8664 9.56325C28.8664 8.50033 28.0835 7.63867 27.1178 7.63867C26.1521 7.63867 25.3692 8.50033 25.3692 9.56325C25.3692 10.6262 26.1521 11.4878 27.1178 11.4878Z" fill="black"/>
<path d="M27.9132 10.4871C28.1404 10.4871 28.3246 10.2681 28.3246 9.99793C28.3246 9.72779 28.1404 9.50879 27.9132 9.50879C27.686 9.50879 27.5018 9.72779 27.5018 9.99793C27.5018 10.2681 27.686 10.4871 27.9132 10.4871Z" fill="white"/>
<path fill-rule="evenodd" clip-rule="evenodd" d="M20.4823 18.8506C19.7075 20.7294 20.9143 24.4894 23.0195 21.7168C22.9564 20.536 22.9878 19.3521 23.1132 18.1763L20.4823 18.8506Z" fill="white"/>
<path d="M21.6137 22.8874C21.4321 22.8865 21.2539 22.8376 21.0972 22.7457C20.5928 22.2348 20.25 21.5868 20.1113 20.8824C19.9727 20.178 20.0445 19.4484 20.3177 18.7845L20.352 18.7022L23.2915 17.9434V18.1719C23.28 18.5605 23.248 18.9491 23.2183 19.3148C23.1295 20.0974 23.1218 20.8872 23.1955 21.6714V21.7445L23.152 21.8039C22.5463 22.6291 22.0229 22.8874 21.6137 22.8874ZM20.6172 19.0016C20.3991 19.5781 20.3452 20.2038 20.4614 20.809C20.5776 21.4143 20.8594 21.9755 21.2754 22.4302C21.8195 22.7411 22.4183 22.2017 22.832 21.6645C22.766 20.8799 22.776 20.0907 22.8617 19.3079C22.8846 19.0131 22.9075 18.7114 22.9235 18.4119L20.6172 19.0016Z" fill="black"/>
<path fill-rule="evenodd" clip-rule="evenodd" d="M20.7475 15.2299C20.3867 15.2638 20.0392 15.383 19.7336 15.5776C19.4279 15.7723 19.173 16.0368 18.9897 16.3493C18.8064 16.6619 18.7 17.0136 18.6794 17.3753C18.6587 17.737 18.7244 18.0985 18.8709 18.4299C19.8652 20.2311 22.0869 18.2699 23.472 18.4551C25.072 18.4871 26.3703 20.1396 27.648 18.7545C29.0698 17.2139 27.0355 15.7122 25.4446 15.0425L20.7475 15.2299Z" fill="#F6D2A2"/>
<path d="M26.5098 19.4883C25.9995 19.4482 25.5019 19.3092 25.0446 19.0791C24.5519 18.8343 24.0178 18.6839 23.4698 18.6357H23.4492C22.8883 18.6361 22.3339 18.7545 21.8218 18.9831C20.6995 19.3717 19.4263 19.8106 18.7132 18.526C18.5403 18.2026 18.4526 17.8405 18.4582 17.4739C18.4638 17.1072 18.5626 16.748 18.7452 16.43C18.9376 16.0554 19.2197 15.7342 19.5662 15.495C19.9127 15.2557 20.313 15.1058 20.7315 15.0586L25.4789 14.8574L25.5155 14.8734C26.6972 15.3717 28.0435 16.2837 28.2743 17.3489C28.3053 17.6061 28.2837 17.8669 28.2108 18.1154C28.1378 18.364 28.0151 18.5952 27.8501 18.7949C27.685 18.9945 27.4811 19.1586 27.2507 19.277C27.0203 19.3954 26.7682 19.4657 26.5098 19.4837V19.4883ZM23.4858 18.286C24.0765 18.3345 24.6527 18.4942 25.184 18.7569C26.0823 19.134 26.7841 19.4311 27.5178 18.6426C27.6814 18.4917 27.8045 18.3021 27.8756 18.0912C27.9467 17.8803 27.9636 17.6549 27.9246 17.4357C27.7258 16.5214 26.4572 15.678 25.4103 15.2323L20.7566 15.4174C20.3994 15.4624 20.0584 15.5934 19.763 15.7993C19.4676 16.0051 19.2265 16.2796 19.0606 16.5991C18.9068 16.8645 18.823 17.1646 18.817 17.4713C18.811 17.7779 18.8831 18.0811 19.0263 18.3523C19.5932 19.3786 20.6263 19.0243 21.7006 18.6494C22.2623 18.4004 22.8714 18.2764 23.4858 18.286Z" fill="#231F20"/>
<path fill-rule="evenodd" clip-rule="evenodd" d="M20.5668 15.1547C20.4594 12.6518 25.2343 12.3433 25.8057 14.4347C26.3771 16.5261 20.8091 17.013 20.5737 15.157L20.5668 15.1547Z" fill="black"/>
</svg>
