<svg width="63" height="63" viewBox="0 0 63 63" fill="none" xmlns="http://www.w3.org/2000/svg">
<rect x="10" y="21" width="50" height="39" fill="black"/>
<path fill-rule="evenodd" clip-rule="evenodd" d="M0 0H63V63H0V0ZM48.1609 52.815C45.2393 52.815 43.5881 51.2925 42.3202 49.2188L37.5086 52.0144C39.2464 55.4479 42.798 58.0676 48.2974 58.0676C53.9201 58.0676 58.107 55.1486 58.107 49.8173C58.107 44.8744 55.2668 42.6772 50.2373 40.5169L48.7567 39.8843C46.2157 38.7817 45.1159 38.0651 45.1159 36.288C45.1159 34.8521 46.2184 33.7523 47.9509 33.7523C49.6493 33.7523 50.7439 34.4689 51.7598 36.288L56.3693 33.3296C54.4189 29.8987 51.7151 28.5889 47.9509 28.5889C42.6641 28.5889 39.2805 31.9699 39.2805 36.4114C39.2805 41.2283 42.1155 43.5094 46.389 45.3285L47.8695 45.9637C50.5706 47.145 52.1798 47.8643 52.1798 49.8934C52.1798 51.5891 50.6126 52.815 48.1609 52.815ZM25.2184 52.7756C23.184 52.7756 22.3361 51.3844 21.4069 49.7306L16.5874 52.6496C17.9839 55.6054 20.7296 58.0571 25.4677 58.0571C30.7151 58.0571 34.3088 55.2668 34.3088 49.1374V28.9249H28.3894V49.0586C28.3894 52.017 27.1609 52.7756 25.2157 52.7756H25.2184Z" fill="#F7E017"/>
</svg>
