<svg width="29" height="29" viewBox="0 0 29 29" fill="none" xmlns="http://www.w3.org/2000/svg">
<circle cx="14.3925" cy="14.6074" r="14.3925" fill="#E8E8F1"/>
<path fill-rule="evenodd" clip-rule="evenodd" d="M12.206 10.7209H15.3646V12.2942C15.8196 11.3893 16.9864 10.5763 18.7393 10.5763C22.0995 10.5763 22.8972 12.3776 22.8972 15.6825V21.8033H19.4953V16.4351C19.4953 14.5531 19.0403 13.4917 17.882 13.4917C16.2755 13.4917 15.6078 14.6356 15.6078 16.4343V21.8033H12.206V10.7209ZM6.37261 21.6587H9.77448V10.5763H6.37261V21.6587ZM10.2618 6.96264C10.2619 7.24778 10.2054 7.5301 10.0954 7.79319C9.9855 8.05629 9.82437 8.29491 9.6214 8.49518C9.21011 8.90393 8.65341 9.13273 8.07355 9.13133C7.49471 9.13094 6.93929 8.90272 6.5274 8.49603C6.32517 8.29507 6.16458 8.05619 6.05483 7.79306C5.94509 7.52993 5.88834 7.24773 5.88785 6.96264C5.88785 6.38687 6.11747 5.83577 6.52825 5.42924C6.93978 5.02201 7.49544 4.79369 8.0744 4.79395C8.65442 4.79395 9.21062 5.02272 9.6214 5.42924C10.0313 5.83577 10.2618 6.38687 10.2618 6.96264Z" fill="#121F31"/>
</svg>
