<svg width="28" height="27" viewBox="0 0 28 27" fill="none" xmlns="http://www.w3.org/2000/svg">
<path d="M15.0742 10.4705C14.5623 10.9825 14.5623 11.8125 15.0742 12.3245C15.5862 12.8364 16.4162 12.8364 16.9282 12.3245L15.0742 10.4705ZM25.8333 1.56543H27.1442C27.1442 0.841417 26.5573 0.254488 25.8333 0.254488V1.56543ZM19.2786 0.254488C18.5546 0.254488 17.9676 0.841417 17.9676 1.56543C17.9676 2.28944 18.5546 2.87637 19.2786 2.87637V0.254488ZM24.5223 8.12014C24.5223 8.84415 25.1093 9.43108 25.8333 9.43108C26.5573 9.43108 27.1442 8.84415 27.1442 8.12014H24.5223ZM27.1442 15.9858C27.1442 15.2618 26.5573 14.6748 25.8333 14.6748C25.1093 14.6748 24.5223 15.2618 24.5223 15.9858H27.1442ZM2.23633 22.5405H0.925386H2.23633ZM4.85821 1.56543V0.254488V1.56543ZM11.4129 2.87637C12.1369 2.87637 12.7239 2.28944 12.7239 1.56543C12.7239 0.841417 12.1369 0.254488 11.4129 0.254488V2.87637ZM16.9282 12.3245L26.7603 2.49241L24.9063 0.638454L15.0742 10.4705L16.9282 12.3245ZM19.2786 2.87637H25.8333V0.254488H19.2786V2.87637ZM24.5223 1.56543V8.12014H27.1442V1.56543H24.5223ZM24.5223 15.9858V22.5405H27.1442V15.9858H24.5223ZM24.5223 22.5405C24.5223 22.8882 24.3842 23.2216 24.1384 23.4675L25.9923 25.3214C26.7299 24.5839 27.1442 23.5835 27.1442 22.5405H24.5223ZM24.1384 23.4675C23.8925 23.7133 23.5591 23.8514 23.2114 23.8514V26.4733C24.2544 26.4733 25.2548 26.059 25.9923 25.3214L24.1384 23.4675ZM23.2114 23.8514H4.85821V26.4733H23.2114V23.8514ZM4.85821 23.8514C4.51053 23.8514 4.17709 23.7133 3.93124 23.4675L2.07728 25.3214C2.81483 26.059 3.81516 26.4733 4.85821 26.4733V23.8514ZM3.93124 23.4675C3.68539 23.2216 3.54727 22.8882 3.54727 22.5405H0.925386C0.925386 23.5835 1.33974 24.5839 2.07728 25.3214L3.93124 23.4675ZM3.54727 22.5405V4.18731H0.925386V22.5405H3.54727ZM3.54727 4.18731C3.54727 3.83963 3.68539 3.50619 3.93124 3.26034L2.07728 1.40639C1.33974 2.14393 0.925386 3.14426 0.925386 4.18731H3.54727ZM3.93124 3.26034C4.17708 3.01449 4.51053 2.87637 4.85821 2.87637V0.254488C3.81516 0.254488 2.81483 0.668838 2.07728 1.40639L3.93124 3.26034ZM4.85821 2.87637H11.4129V0.254488H4.85821V2.87637Z" fill="#FCFCFC"/>
</svg>
