<svg width="63" height="63" viewBox="0 0 63 63" fill="none" xmlns="http://www.w3.org/2000/svg">
<circle cx="33.2522" cy="33.2523" r="29" transform="rotate(-0.500512 33.2522 33.2523)" fill="black"/>
<path d="M29.4367 0.0160754C29.3002 0.0291981 28.8698 0.0738154 28.4813 0.102685C19.5353 0.911046 11.1562 5.73759 5.84325 13.1572C2.90929 17.2298 1.00202 21.9503 0.2835 26.9177C0.0315 28.6499 0 29.1591 0 31.5054C0 33.8518 0.0315 34.3635 0.2835 36.0931C1.995 47.922 10.416 57.8585 21.8321 61.5407C23.877 62.1995 26.0321 62.6483 28.4813 62.9213C29.4368 63.0262 33.5632 63.0262 34.5187 62.9213C38.7476 62.4515 42.3334 61.4043 45.8666 59.6012C46.41 59.3256 46.515 59.2495 46.4415 59.1892C44.7132 56.9103 43.0025 54.6181 41.3096 52.3128L36.2723 45.5074L29.9617 36.1666C27.8621 33.0424 25.7428 29.9313 23.604 26.8337C23.5804 26.8258 23.5567 30.9753 23.5436 36.0459C23.5252 44.9169 23.5174 45.2738 23.4071 45.4838C23.2996 45.7288 23.1077 45.9271 22.8664 46.0428C22.6695 46.1425 22.4989 46.1609 21.567 46.1609H20.5012L20.2178 45.9824C20.0423 45.8717 19.9 45.7158 19.8056 45.531L19.6744 45.2554L19.7059 20.5584L19.8975 20.317C20.0265 20.166 20.1811 20.039 20.3542 19.9416C20.6063 19.8183 20.7034 19.8078 21.7717 19.8078C23.0265 19.8078 23.2365 19.855 23.562 20.212C23.6539 20.3117 27.0716 25.4611 31.1614 31.6603L48.5756 58.037L48.8302 57.8716C51.2305 56.2761 53.4067 54.3669 55.3009 52.1947C59.2703 47.6524 61.8451 42.0618 62.7165 36.0931C62.9685 34.3609 63 33.8518 63 31.5054C63 29.1591 62.9685 28.6499 62.7165 26.9177C61.005 15.0915 52.584 5.15232 41.1679 1.47008C39.0342 0.791811 36.8372 0.331906 34.6106 0.0974364C34.0174 0.0344472 29.9486 -0.0337911 29.4394 0.0186999L29.4367 0.0160754ZM42.3334 19.0703C42.4798 19.144 42.6101 19.246 42.7169 19.3703C42.8237 19.4946 42.9048 19.6389 42.9555 19.7947C43.0028 19.9521 43.0159 23.3772 43.0028 31.0934L42.9844 42.1637L41.034 39.1717L39.0757 36.1797V28.1329C39.0757 22.9284 39.0994 20.0046 39.1361 19.8629C39.1798 19.699 39.2563 19.5456 39.361 19.4121C39.4657 19.2785 39.5964 19.1676 39.7451 19.086C39.9997 18.9548 40.0916 18.9443 41.0576 18.9443C41.9685 18.9443 42.1286 18.9601 42.3334 19.0703Z" fill="white"/>
</svg>
