<svg width="62" height="62" viewBox="0 0 62 62" fill="none" xmlns="http://www.w3.org/2000/svg">
<path fill-rule="evenodd" clip-rule="evenodd" d="M54.0708 2.07022C56.568 3.393 58.6089 5.43434 59.9287 7.92922C61.2801 10.4557 61.9998 12.9614 61.9998 19.8691V32.0024C61.9996 32.079 61.9768 32.1537 61.9341 32.2174C61.8914 32.281 61.8308 32.3305 61.7599 32.3598C61.6891 32.3891 61.6111 32.3967 61.5359 32.3818C61.4606 32.3669 61.3915 32.3301 61.3372 32.2761V32.2744L56.7547 27.6934C56.3909 27.3296 56.1866 26.8366 56.1868 26.3226V20.7145C56.1868 15.5325 55.6465 13.6536 54.6334 11.7592C53.6432 9.88826 52.1122 8.3576 50.2391 7.36589C48.3656 6.36202 46.5057 5.82364 41.4473 5.8125H33.872C33.7954 5.81208 33.7207 5.78908 33.6572 5.74638C33.5937 5.70368 33.5442 5.6432 33.515 5.57253C33.4859 5.50187 33.4783 5.42418 33.4933 5.34923C33.5083 5.27428 33.5451 5.20543 33.5992 5.15133L38.1816 0.568414C38.3613 0.388323 38.5749 0.245407 38.81 0.147864C39.0452 0.0503208 39.2973 7.1871e-05 39.552 0H42.1289C49.0379 0 51.5439 0.719781 54.0708 2.07022ZM44.5625 9.6875C48.8428 9.6875 52.3121 13.1578 52.3121 17.4375V22.3442C52.3118 22.4199 52.2893 22.4938 52.2473 22.5569C52.2054 22.6199 52.1458 22.6693 52.076 22.699C52.0063 22.7287 51.9293 22.7373 51.8547 22.7238C51.7801 22.7104 51.711 22.6754 51.6561 22.6232L45.4082 16.6504C45.0087 16.2506 44.5262 15.9431 43.9946 15.7497C43.5568 15.5842 43.0924 15.4996 42.6242 15.5H24.1805C24.1038 15.4999 24.0288 15.4771 23.9651 15.4345C23.9014 15.3919 23.8517 15.3314 23.8223 15.2607C23.793 15.19 23.7853 15.1122 23.8003 15.0371C23.8152 14.962 23.8521 14.893 23.9062 14.8388L28.4954 10.2542C28.6751 10.0747 28.8885 9.93223 29.1234 9.83499C29.3583 9.73775 29.6101 9.68763 29.8643 9.6875H44.5625Z" fill="#E55638"/>
<path fill-rule="evenodd" clip-rule="evenodd" d="M56.8479 33.6006L61.4321 38.1833C61.7952 38.5475 61.9993 39.0403 62 39.5541V42.1324C62 49.0403 61.2801 51.5462 59.9287 54.0727C58.6089 56.5676 56.568 58.6089 54.0708 59.9317C51.5442 61.2802 49.0379 62 42.1289 62H29.9971C29.9205 61.9995 29.8458 61.9765 29.7823 61.9338C29.7189 61.8911 29.6695 61.8306 29.6403 61.7599C29.6112 61.6893 29.6037 61.6116 29.6186 61.5367C29.6336 61.4617 29.6705 61.3929 29.7245 61.3388V61.3403L34.307 56.7576C34.4866 56.5775 34.7002 56.4346 34.9353 56.3371C35.1705 56.2395 35.4227 56.1893 35.6773 56.1892H41.285C46.4661 56.1892 48.344 55.6501 50.2391 54.6358C52.1122 53.6441 53.6432 52.1134 54.6334 50.2425C55.6465 48.3479 56.1868 46.469 56.1868 41.2869V33.8743C56.1872 33.798 56.2102 33.7236 56.2528 33.6603C56.2954 33.597 56.3557 33.5477 56.4263 33.5185C56.4969 33.4892 56.5746 33.4815 56.6496 33.4961C56.7246 33.5107 56.7936 33.547 56.8479 33.6006ZM47.1615 23.9112L51.7456 28.4992C52.1086 28.8634 52.3122 29.3563 52.3119 29.87V44.5673C52.3119 48.847 48.8425 52.3173 44.5621 52.3173H39.6554C39.5796 52.317 39.5056 52.2945 39.4424 52.2526C39.3793 52.2108 39.3298 52.1514 39.3001 52.0818C39.2704 52.0123 39.2617 51.9355 39.2751 51.8611C39.2886 51.7867 39.3236 51.7178 39.3758 51.663V51.6613L45.3475 45.4114C45.7487 45.0125 46.0569 44.5303 46.2504 43.9992C46.4153 43.5614 46.4994 43.0975 46.4987 42.6298V24.1848C46.4988 24.1082 46.5216 24.0334 46.5643 23.9697C46.607 23.9061 46.6676 23.8565 46.7385 23.8272C46.8095 23.7979 46.8875 23.7903 46.9628 23.8052C47.0381 23.8202 47.1072 23.857 47.1615 23.9112Z" fill="#F4C942"/>
<path fill-rule="evenodd" clip-rule="evenodd" d="M0.66115 29.7237L5.24696 34.3066C5.61011 34.6708 5.81426 35.1636 5.81491 35.6774V41.2852C5.81491 46.4673 6.35325 48.3462 7.36827 50.2406C8.358 52.1112 9.88832 53.6418 11.7606 54.6339C13.6557 55.6486 15.5353 56.1875 20.7167 56.1875H28.128C28.2049 56.1872 28.2801 56.2098 28.3441 56.2522C28.4082 56.2946 28.4581 56.3551 28.4877 56.4259C28.5173 56.4967 28.5251 56.5747 28.5103 56.6499C28.4954 56.7252 28.4585 56.7944 28.4042 56.8487L23.8181 61.4316C23.6387 61.6115 23.4254 61.7543 23.1906 61.8519C22.9557 61.9494 22.7039 61.9998 22.4495 62H19.8709C12.9618 62 10.4575 61.2802 7.93088 59.9298C5.43299 58.6073 3.39133 56.5659 2.07107 54.0708C0.733235 51.5697 0.0145628 49.089 0.000242713 42.3368L0 29.9973C0.000414102 29.9211 0.023362 29.8467 0.0659702 29.7834C0.108578 29.7201 0.168953 29.6707 0.239534 29.6415C0.310115 29.6123 0.387766 29.6045 0.462763 29.6191C0.537759 29.6337 0.606769 29.6701 0.66115 29.7237ZM10.3437 39.3768H10.342L16.5933 45.3496C16.9921 45.7494 17.4741 46.0569 18.0052 46.2503C18.4429 46.4164 18.9074 46.501 19.3758 46.5H37.8195C37.8961 46.5005 37.9708 46.5235 38.0343 46.5662C38.0977 46.6089 38.1472 46.6694 38.1763 46.7401C38.2054 46.8107 38.213 46.8884 38.198 46.9633C38.183 47.0383 38.1461 47.1071 38.0921 47.1612L33.5046 51.7458C33.1414 52.1081 32.6492 52.3119 32.1357 52.3125H17.4377C16.4189 52.3114 15.4102 52.1101 14.4693 51.72C13.5285 51.33 12.6738 50.7588 11.9542 50.0391C11.2345 49.3195 10.664 48.4654 10.2751 47.5257C9.88628 46.5861 9.68673 45.5791 9.68788 44.5625V39.6558C9.68821 39.5801 9.71075 39.5062 9.7527 39.4431C9.79465 39.3801 9.85419 39.3307 9.92396 39.301C9.99373 39.2713 10.0707 39.2627 10.1453 39.2762C10.2199 39.2896 10.2887 39.3246 10.3437 39.3768Z" fill="#7B8FEA"/>
<path fill-rule="evenodd" clip-rule="evenodd" d="M22.3441 9.6875C22.4199 9.68788 22.494 9.71038 22.5571 9.75223C22.6202 9.79408 22.6697 9.85345 22.6994 9.92302C22.7292 9.99259 22.7378 10.0693 22.7244 10.1438C22.7109 10.2182 22.6759 10.2871 22.6237 10.3419L16.6503 16.5937C16.2498 16.9927 15.9422 17.4747 15.7494 18.0057C15.5838 18.4433 15.4991 18.9072 15.4992 19.375V37.82C15.4985 37.8961 15.4753 37.9704 15.4326 38.0334C15.3899 38.0965 15.3295 38.1456 15.259 38.1747C15.1884 38.2037 15.1109 38.2114 15.036 38.1967C14.9612 38.182 14.8923 38.1457 14.838 38.0922L10.2539 33.5042C9.89107 33.1405 9.68753 32.6481 9.68788 32.1349V17.4375C9.68788 13.1578 13.157 9.6875 17.4375 9.6875H22.3441ZM32.0027 0C32.0792 0.000416322 32.154 0.0234199 32.2175 0.0661177C32.281 0.108815 32.3305 0.169301 32.3596 0.239967C32.3888 0.310633 32.3964 0.388324 32.3814 0.46327C32.3664 0.538216 32.3295 0.60707 32.2755 0.661172L27.693 5.24409C27.5133 5.42404 27.2997 5.56686 27.0646 5.6644C26.8294 5.76193 26.5773 5.81226 26.3227 5.8125H20.715C15.5336 5.8125 13.654 6.35161 11.7589 7.36589C9.8859 8.3576 8.35488 9.88826 7.36463 11.7592C6.36223 13.6337 5.82268 15.4932 5.81127 20.5523V28.1274C5.81081 28.2036 5.78785 28.278 5.74525 28.3412C5.70265 28.4045 5.64232 28.4538 5.57179 28.483C5.50125 28.5122 5.42366 28.52 5.3487 28.5054C5.27375 28.4909 5.20476 28.4546 5.15036 28.4011L0.569647 23.8184C0.389126 23.6385 0.245905 23.4248 0.148163 23.1896C0.0504217 22.9544 7.53799e-05 22.7023 0 22.4476V19.8691C0 12.9614 0.719643 10.4552 2.07107 7.92922C3.39082 5.43434 5.43177 3.393 7.92894 2.07022C10.4306 0.733344 12.9118 0.0145313 19.6634 0H32.0027Z" fill="#D97EE8"/>
</svg>
