<svg width="64" height="64" viewBox="0 0 64 64" fill="none" xmlns="http://www.w3.org/2000/svg">
<path d="M31.7694 0C15.5222 0 16.5367 7.04576 16.5367 7.04576L16.5547 14.3454H32.0591V16.5369H10.3966C10.3966 16.5369 0 15.3578 0 31.7512C0 48.145 9.07441 47.5636 9.07441 47.5636H14.49V39.9562C14.49 39.9562 14.198 30.8818 23.4195 30.8818H38.7972C38.7972 30.8818 47.4368 31.0214 47.4368 22.5319V8.49501C47.4368 8.49501 48.7489 0 31.7694 0ZM23.2203 4.90885C23.5867 4.90852 23.9495 4.98044 24.2881 5.1205C24.6266 5.26055 24.9343 5.46599 25.1933 5.72506C25.4524 5.98413 25.6578 6.29175 25.7979 6.6303C25.9379 6.96885 26.0099 7.3317 26.0095 7.69808C26.0099 8.06446 25.9379 8.42731 25.7979 8.76587C25.6578 9.10442 25.4524 9.41204 25.1933 9.67111C24.9343 9.93018 24.6266 10.1356 24.2881 10.2757C23.9495 10.4157 23.5867 10.4876 23.2203 10.4873C22.8539 10.4876 22.4911 10.4157 22.1525 10.2757C21.814 10.1356 21.5064 9.93018 21.2473 9.67111C20.9882 9.41204 20.7828 9.10442 20.6427 8.76587C20.5027 8.42731 20.4307 8.06446 20.4311 7.69808C20.4307 7.3317 20.5027 6.96885 20.6427 6.6303C20.7828 6.29175 20.9882 5.98413 21.2473 5.72506C21.5064 5.46599 21.814 5.26055 22.1525 5.1205C22.4911 4.98044 22.8539 4.90852 23.2203 4.90885Z" fill="url(#paint0_linear_229_54)"/>
<path d="M32.2308 63.6672C48.478 63.6672 47.4636 56.6214 47.4636 56.6214L47.4455 49.3221H31.9409V47.1305H53.6034C53.6034 47.1305 64 48.3096 64 31.9158C64 15.5222 54.9256 16.1036 54.9256 16.1036H49.51V23.7107C49.51 23.7107 49.802 32.7851 40.5805 32.7851H25.2028C25.2028 32.7851 16.5632 32.6456 16.5632 41.1353V55.1724C16.5632 55.1724 15.2513 63.6672 32.2306 63.6672H32.2308ZM40.7799 58.7588C40.4136 58.7592 40.0507 58.6873 39.7122 58.5472C39.3736 58.4072 39.066 58.2017 38.8069 57.9426C38.5479 57.6836 38.3424 57.376 38.2024 57.0374C38.0623 56.6988 37.9904 56.336 37.9907 55.9696C37.9903 55.6032 38.0622 55.2403 38.2023 54.9018C38.3423 54.5632 38.5478 54.2555 38.8068 53.9964C39.0659 53.7373 39.3735 53.5319 39.7121 53.3918C40.0507 53.2517 40.4135 53.1798 40.7799 53.1801C41.1463 53.1798 41.5092 53.2517 41.8477 53.3918C42.1863 53.5318 42.4939 53.7373 42.753 53.9963C43.012 54.2554 43.2175 54.563 43.3575 54.9016C43.4976 55.2401 43.5695 55.603 43.5692 55.9694C43.5695 56.3357 43.4976 56.6986 43.3575 57.0371C43.2175 57.3757 43.012 57.6833 42.753 57.9424C42.4939 58.2015 42.1863 58.4069 41.8477 58.547C41.5092 58.687 41.1463 58.7592 40.7799 58.7588Z" fill="url(#paint1_linear_229_54)"/>
<defs>
<linearGradient id="paint0_linear_229_54" x1="8.29376" y1="7.66489" x2="50.7482" y2="50.0097" gradientUnits="userSpaceOnUse">
<stop stop-color="#387EB8"/>
<stop offset="1" stop-color="#366994"/>
</linearGradient>
<linearGradient id="paint1_linear_229_54" x1="25.6179" y1="25.8898" x2="59.6778" y2="58.0876" gradientUnits="userSpaceOnUse">
<stop stop-color="#FFE052"/>
<stop offset="1" stop-color="#FFC331"/>
</linearGradient>
</defs>
</svg>
