<svg width="72" height="64" viewBox="0 0 72 64" fill="none" xmlns="http://www.w3.org/2000/svg">
<path d="M12.8017 20.7437C13.5679 20.481 14.3406 20.2377 15.1192 20.014C14.9884 19.4801 14.868 18.9527 14.7611 18.4345C13.0067 9.92589 14.1536 3.07116 18.0712 0.814257C21.8273 -1.34936 27.97 0.906703 34.1738 6.30085C34.7853 6.83342 35.3831 7.38134 35.9668 7.94408C36.3576 7.56987 36.7552 7.20293 37.1596 6.84344C43.6615 1.07586 50.1787 -1.35498 54.092 0.908389C57.8447 3.07875 58.9559 9.52267 57.3764 17.5865C57.2193 18.3851 57.0418 19.1797 56.8443 19.9693C57.7668 20.2312 58.6569 20.5099 59.5088 20.8066C67.1318 23.462 72 27.6231 72 31.9394C72 36.3973 66.7738 40.8687 58.8341 43.58C58.1904 43.7989 57.5414 44.0017 56.8876 44.1883C57.0999 45.0388 57.2884 45.895 57.4529 46.756C58.9587 54.6799 57.7828 60.9715 54.0402 63.1281C50.1747 65.3552 43.6868 63.0663 37.3697 57.5491C36.8574 57.1005 36.3565 56.6393 35.8672 56.1657C35.2351 56.7751 34.5861 57.3667 33.921 57.9399C27.8016 63.2006 21.7581 65.3249 18.0191 63.1624C14.1573 60.9288 12.9021 54.1699 14.5316 45.9467C14.66 45.3025 14.8039 44.6615 14.9633 44.0242C14.5077 43.8893 14.0605 43.7505 13.6246 43.6061C5.37047 40.874 0 36.4569 0 31.9394C0 27.6074 5.02538 23.4181 12.8017 20.7437ZM14.5918 40.6894C14.9856 40.8195 15.3894 40.9451 15.8012 41.0674C16.7124 38.1852 17.9421 35.1208 19.447 31.9543C18.011 28.8634 16.8286 25.838 15.9429 22.9747C15.2063 23.1877 14.4917 23.4122 13.8026 23.6491C7.13982 25.9409 3.07575 29.3288 3.07575 31.9394C3.07575 34.7201 7.46494 38.33 14.5918 40.6894ZM17.5489 46.5436C16.8283 50.1796 16.7257 53.4671 17.2029 56.0373C17.6316 58.3468 18.4939 59.8863 19.5604 60.5031C21.8292 61.8153 26.6816 60.1097 31.9148 55.6105C32.5335 55.0776 33.1372 54.5276 33.7253 53.9611C31.6963 51.7444 29.6688 49.1674 27.6899 46.3053C24.2092 45.9967 20.9208 45.4921 17.9387 44.8034C17.795 45.3803 17.6651 45.9605 17.5489 46.5436ZM47.4536 60.2763C49.6704 61.0583 51.4361 61.0808 52.5035 60.466C54.7746 59.1574 55.7187 54.1055 54.4309 47.3292C54.2778 46.5285 54.1025 45.7321 53.9052 44.9411C50.956 45.593 47.6916 46.0617 44.2027 46.3443C42.2103 49.1449 40.1243 51.7191 38.0219 53.9732C38.4687 54.4051 38.926 54.826 39.3936 55.2354C42.1872 57.6749 44.9865 59.4058 47.4536 60.2763ZM57.8391 40.6723C61.3499 39.4733 64.2493 37.9152 66.2366 36.215C68.0226 34.6872 68.924 33.1702 68.924 31.9394C68.924 29.32 65.0154 25.9791 58.4963 23.7084C57.7052 23.433 56.8772 23.1731 56.018 22.9292C55.1168 25.8571 53.935 28.9185 52.5088 32.0142C53.9536 35.1556 55.1523 38.2659 56.0621 41.2284C56.6589 41.0576 57.2514 40.8722 57.8391 40.6723ZM54.3577 16.9961C55.7108 10.0875 54.8123 4.87596 52.5507 3.56795C50.1421 2.17481 44.8158 4.16112 39.2018 9.14137C38.8357 9.46686 38.4755 9.79895 38.1215 10.1375C40.2134 12.3817 42.2803 14.9368 44.255 17.7208C47.6412 18.0344 50.8826 18.5379 53.8628 19.2126C54.0464 18.4781 54.2114 17.7389 54.3577 16.9961ZM23.3002 24.6581C24.0041 23.4434 24.7341 22.244 25.4897 21.0606C23.1924 21.3509 20.9914 21.7361 18.9245 22.2071C19.5449 24.1942 20.3183 26.2716 21.2287 28.4015C21.8942 27.1401 22.5848 25.892 23.3002 24.6581ZM35.9654 12.3337C34.5468 13.8693 33.1259 15.5836 31.7284 17.4438C34.5634 17.31 37.4031 17.3094 40.2382 17.4421C38.8392 15.5991 37.4062 13.887 35.9654 12.3337ZM48.7119 24.6792C49.4183 25.9032 50.0961 27.1434 50.7445 28.399C51.64 26.2766 52.4064 24.1897 53.0322 22.1745C50.978 21.7154 48.7873 21.3399 46.5047 21.055C47.2687 22.2456 48.0047 23.4542 48.7119 24.6792ZM46.4392 43.0424C48.7974 42.7794 51.021 42.4234 53.0747 41.9766C52.4391 39.9254 51.6558 37.7941 50.7409 35.6263C50.0898 36.8828 49.4093 38.1238 48.6998 39.3483C47.9703 40.6071 47.2148 41.8401 46.4392 43.0424ZM35.8805 51.7615C37.3385 50.1902 38.7925 48.4518 40.2126 46.5821C38.8339 46.636 37.4285 46.6635 36 46.6635C34.5324 46.6635 33.0817 46.6307 31.6538 46.5672C33.0559 48.4706 34.4714 50.2116 35.8805 51.7615ZM21.1998 35.5156C20.2373 37.7073 19.4262 39.8273 18.7822 41.8434C20.8696 42.3194 23.1235 42.7027 25.4984 42.9874C24.7374 41.7821 24.0005 40.5618 23.2881 39.3272C22.5637 38.0723 21.8675 36.8014 21.1998 35.5156ZM25.9523 37.7919C27.043 39.6847 28.1949 41.5416 29.4064 43.3597C31.6008 43.5149 33.8001 43.5921 36 43.5909C38.2407 43.5909 40.4201 43.5212 42.5188 43.3852C43.7619 41.5714 44.9358 39.7112 46.0381 37.8087C47.1352 35.9163 48.1597 33.9829 49.1099 32.0128C48.1621 30.0422 47.1404 28.1079 46.0471 26.214L46.0474 26.2143C44.9544 24.3199 43.7899 22.4677 42.5562 20.6616C40.4151 20.4998 38.2193 20.4155 36.0003 20.4155C33.7711 20.4155 31.5723 20.5006 29.4317 20.6636C28.2105 22.467 27.0534 24.3128 25.9625 26.1977C24.8655 28.0874 23.8303 30.0123 22.8586 31.9692C23.8203 33.9462 24.8522 35.8883 25.9523 37.7919ZM19.6073 3.47635C17.1965 4.86556 16.2588 10.4676 17.7736 17.8141C17.8703 18.2828 17.9789 18.7602 18.097 19.2443C21.0845 18.5553 24.3281 18.0431 27.7242 17.7247C29.7025 14.9101 31.7526 12.3511 33.8105 10.1358C33.2711 9.61638 32.719 9.11045 32.1545 8.61845C26.8388 3.99702 21.8708 2.17228 19.6073 3.47635ZM36 25.516C32.4492 25.516 29.5706 28.3919 29.5706 31.9394C29.5706 35.4869 32.4492 38.3628 36 38.3628C39.5508 38.3628 42.4294 35.4869 42.4294 31.9394C42.4294 28.3919 39.5508 25.516 36 25.516Z" fill="#00D8FF"/>
</svg>
