<svg width="92" height="62" viewBox="0 0 92 62" fill="none" xmlns="http://www.w3.org/2000/svg">
<path d="M46 0C33.7333 0 26.0667 6.88889 23 20.6667C27.6 13.7778 32.9667 11.1944 39.1 12.9167C42.5998 13.8983 45.0992 16.7486 47.8707 19.9089C52.3825 25.0497 57.5997 31 69 31C81.2667 31 88.9333 24.1111 92 10.3333C87.4 17.2222 82.0333 19.8056 75.9 18.0833C72.4002 17.1017 69.9008 14.2514 67.1293 11.0911C62.6213 5.95028 57.4042 0 46 0ZM23 31C10.7333 31 3.06667 37.8889 0 51.6667C4.6 44.7778 9.96667 42.1944 16.1 43.9167C19.5998 44.8983 22.0992 47.7486 24.8707 50.9089C29.3825 56.0497 34.5997 62 46 62C58.2667 62 65.9333 55.1111 69 41.3333C64.4 48.2222 59.0333 50.8056 52.9 49.0833C49.4002 48.1017 46.9008 45.2514 44.1293 42.0911C39.6213 36.9503 34.4042 31 23 31Z" fill="#38BDF8"/>
</svg>
