<svg width="64" height="64" viewBox="0 0 64 64" fill="none" xmlns="http://www.w3.org/2000/svg">
<rect x="9" y="22" width="55" height="40" fill="white"/>
<path d="M0 64H64V0H0V64ZM51.572 29.448C53.1063 29.8092 54.5007 30.6132 55.582 31.76C56.166 32.384 57.04 33.53 57.114 33.812C57.134 33.896 54.354 35.76 52.666 36.802C52.604 36.844 52.354 36.584 52.082 36.176C51.26 34.978 50.394 34.458 49.072 34.364C47.134 34.238 45.884 35.25 45.894 36.948C45.8838 37.3635 45.9766 37.775 46.164 38.146C46.592 39.032 47.394 39.562 49.872 40.636C54.456 42.604 56.414 43.906 57.632 45.75C58.996 47.812 59.298 51.104 58.382 53.562C57.362 56.218 54.84 58.03 51.298 58.624C50.204 58.822 47.6 58.79 46.422 58.572C43.85 58.114 41.412 56.842 39.912 55.176C39.318 54.53 38.172 52.832 38.246 52.718C38.278 52.676 38.538 52.51 38.83 52.342L41.206 50.966L43.05 49.894L43.436 50.466C43.978 51.288 45.154 52.414 45.864 52.788C47.906 53.872 50.708 53.716 52.094 52.476C52.656 52.008 52.97 51.288 52.928 50.56C52.928 49.82 52.834 49.488 52.448 48.934C51.948 48.226 50.938 47.622 48.052 46.372C44.75 44.944 43.322 44.07 42.032 42.664C41.2199 41.7386 40.6193 40.6472 40.272 39.466C40.032 38.56 39.97 36.288 40.158 35.382C40.836 32.184 43.252 29.966 46.72 29.31C47.846 29.092 50.47 29.174 51.574 29.446L51.572 29.448ZM36.552 32.126L36.572 34.74H28.238V58.418H22.342V34.74H14.02V32.178C14.02 30.75 14.052 29.564 14.092 29.532C14.124 29.49 19.186 29.47 25.332 29.48L36.52 29.512L36.552 32.126Z" fill="#2F78C7"/>
</svg>
